# xmcd CD database file
#
# Track frame offsets:
#	150
#	24175
#	43475
#
# Disc length: 873 seconds
#
# Revision: 0
# Processed by: cddbd v1.5.1PL2 Copyright (c) Steve Scherf et al.
# Submitted via: CDex 1.51
#
DISCID=1e036703
DTITLE=近藤房之助 - 夢の尻尾〜ＮＨＫドラマ新銀河「つばさ」テーマ曲〜
DYEAR=1994
DGENRE=JPop
TTITLE0=夢の尻尾
TTITLE1=Ｍｙ　Ｌｉｔｔｌｅ　Ｍａｍａ　Ｔ
TTITLE2=夢の尻尾（Ａｃｏｕｓｔｉｃ　Ｖｅｒｓｉｏｎ）
EXTD=YEAR: 1994/2/23
EXTT0=
EXTT1=
EXTT2=
PLAYORDER=
